@startuml
skinparam classAttributeIconSize 0

package "Presentation" #DDDDDD {
class ServiceDraftTaskSpecificationUI<<presentation>>{

}
}


package "Application" #DDDDDD {
class ServiceDraftSpecificationController<<application>>{
+create()
+getDrafts()
+newDraft()
+addApprovalTask(description)
+saveApprovalTask()
+newManualTask(description, form)
+newAutoTask(description, scriptPath)
+addTaskToDraft()
+saveServiceDraft()
}

class ServiceDraftSpecificationService<<application>>{
+create()
+addApprovalTask(description)
+generateApprovalForm()
+addAttribute()
}

}


package "Domain" #DDDDDD {
class ServiceDraft<<Entity>><<Root>>{
+create()
+setApprovalTask(approvalTask)
}

class Task<<Entity>><<Root>>{
+create(description, priority)
}

class ManualTask<<Entity>>{
+create(description, priority, form)
}

class AutomaticTask<<Entity>>{
+create(description, priority, scriptPath)
}

class Form<<Entity>><<Root>>{
+create(name, formType, attributeList)
}

class Attribute<<Value Object>>{
+create(name, label, description, regex, scriptPath, dataType
}

class TaskDescription<<Value Object>>{
+createFormType(taskDescription)
+values()
-validate(taskDescription)
}

class TaskResult<<Value Object>>{
+createFormType(taskResult)
+values()
-validate(taskResult)
}

class TaskStatus<<Value Object>>{
+createFormType(taskStatus)
+values()
-validate(taskStatus)
}

class TaskPriority<<Value Object>>{
+createFormType(taskPriority)
+values()
-validate(taskPriority)
}

class AutomaticTaskScript<<Value Object>>{
+createFormType(automaticTaskScript)
+values()
-validate(automaticTaskScript)
}

class FormName<<Value Object>>{
+createFormName(formName)
-validate(formName)
}

class FormType<<Value Object>>{
+createFormType(formType)
+values()
-validate(formType)
}

class AttributeName<<Value Object>>{
+createAttributeName(attributeName)
-validate(attributeName)
}

class AttributeLabel<<Value Object>>{
+createAtributoLabel(attributeLabel)
-validate(attributeLabel)
}

class AttributeDescription<<Value Object>>{
+createAttributeDescription(attributeDescription)
-validate(attributeDescription)
}

class AttributeRegex<<Value Object>>{
+createAttributeRegex(attributeRegex)
-validate(attributeRegex)
}

class AttributeScript<<Value Object>>{
+createAttributeScript(attributeScript)
-validate(attributeScript)
}

class DataType<<Value Object>>{
+createDataType(dataType)
+values()
-validate(dataType)
}

package Builder #DDDDDD {

class FormBuilder<<builder>>{
+create()
+withName(name)
+withFormType(formType)
+withAttributeList(attributeList)
+build()
}

class AttributeBuilder<<builder>>{
+create()
+withName(name)
+withLabel(label)
+withDescription(description)
+withRegex(regex)
+withScript(scriptPath
+withDataType(dataType)
+build()
}

}

}

package Persistence #DDDDDD {
class PersistenceContext<<persistence>>{
+repositories()
}

class AppSettings<<persistence>>{
+instance()
+getRepositoryFactory()
}

package Factory #DDDDDD {
class RepositoryFactory<<persistence>>{
+create()
+servicos()
+catalogos()
+formularios()
+tasks()
}
}

package "Repository" #DDDDDD {

class ServiceDraftRepository<<repository>>{
+create()
+findAll()
+save(serviceDraft)
}

class FormRepository<<repository>>{
+create()
+save(form)
}

class TaskRepository<<repository>>{
+create()
+save(task)
}

interface TaskRepositoryInterface{

}

interface ServiceDraftRepositoryInterface{

}

interface FormRepositoryInterface{

}

}



ServiceDraftTaskSpecificationUI ..> ServiceDraftSpecificationController
ServiceDraftSpecificationController ..> FormBuilder
ServiceDraftSpecificationController ..> AttributeBuilder
ServiceDraftSpecificationController ..> PersistenceContext
ServiceDraftSpecificationController ..> ServiceDraftSpecificationService

ServiceDraftRepository ..> ServiceDraftRepositoryInterface
FormRepository ..> FormRepositoryInterface

AppSettings -> RepositoryFactory : creates
PersistenceContext -> AppSettings : implements

RepositoryFactory "1" -> "1" ServiceDraftRepository : has
RepositoryFactory "1" -> "1" FormRepository : has

ServiceDraftRepository "1" -> "*" ServiceDraft : saves
FormRepository "1" -> "*" Form : saves
TaskRepository "1" -> "*" Task : saves
FormBuilder "1" -> "*" Form : builds
AttributeBuilder "1" -> "*" Attribute : builds

ServiceDraft "1" -> "*" Form : has

Form "1" -> "1" FormName : has
Form "1" -> "1" FormType : has
Form "1" -> "1..*" Attribute : has

Attribute "1" -> "1" AttributeName : has
Attribute "1" -> "1" AttributeLabel : has
Attribute "1" -> "1" AttributeDescription : has
Attribute "1" -> "1" AttributeRegex : has
Attribute "1" -> "1" AttributeScript : has
Attribute "1" -> "1" DataType : has


ManualTask -|> Task : is a
AutomaticTask -|> Task : is a

Task "1" -> "1" TaskDescription : has
Task "1" -> "1" TaskPriority : has
Task "1" -> "1" TaskResult : has
Task "1" -> "1" TaskStatus : has
ManualTask "1" -> "1" Form : has
AutomaticTask "1" -> "1" AutomaticTaskScript : has

@enduml